/* XPM */
static char * zombie_xpm[] = {
"70 70 14 1",
" 	c None",
".	c #EAEAEA",
"+	c #6E6E6E",
"@	c #EBEBEB",
"#	c #EEEEEE",
"$	c #E9E9E9",
"%	c #000000",
"&	c #6F6F6F",
"*	c #717171",
"=	c #828282",
"-	c #6D6D6D",
";	c #8F8F8F",
">	c #707070",
",	c #727272",
"                                                                      ",
"                                                                      ",
"                                                                      ",
"                                                                      ",
"                                                                      ",
"                                                                      ",
"                                                                      ",
"                                                                      ",
"                                                                      ",
"                                                                      ",
"                                                                      ",
"                                                                      ",
"                                                                      ",
"                                                                      ",
"                                                                      ",
"                                                                      ",
"                                                                      ",
"                                                                      ",
"                              .........                               ",
"                             ...........                              ",
"                           ...............                            ",
"                 ++++++..@.................#.++++++++                 ",
"              ++++++++......................$..+++++++++              ",
"              +++++++...........................++++++++              ",
"             ++++++++%%%%%%%%%%%%%%%%%%%%%%%%%%%+&+++++++             ",
"           ++++++++++%%%%%%%%%%%%%%%%%%%%%%%%%%%+++++++++++           ",
"           +++++++++%%%%%%%%%%%%%%%%%%%%%%%%%%%%%+&++++++++           ",
"           ++++++++%%%%%%%%%%%%%%%%%%%%%%%%%%%%%%+*++++++++           ",
"==========+++++++++%%%%%%%%%%%%%%%%%%%%%%%%%%%%%%+++++++++-+;;;;;;;;;;",
"==========++++++&+%%%%%%%%%%%%%%%%%%%%%%%%%%%%%%%%++++++++-+;;;;;;;;;;",
"==========++++++>+%%%%%%%%%%%%%%%%%%%%%%%%%%%%%%%%%+++++++-+;;;;;;;;;;",
"==========++++++>+%%%%%%%%%%%%%%%%%%%%%%%%%%%%%%%%%+++++++-+;;;;;;;;;;",
"==========++++++>+%%%%%%%%%%%%%%%%%%%%%%%%%%%%%%%%%+++++++-+;;;;;;;;;;",
"==========++++++>+%%%%%%%%%%%%%%%%%%%%%%%%%%%%%%%%%+++++++-+;;;;;;;;;;",
"==========++++++>+%%%%%%%%%%%%%%%%%%%%%%%%%%%%%%%%%+++++++-+;;;;;;;;;;",
"==========++++++>+%%%%%%%%%%%%%%%%%%%%%%%%%%%%%%%%%+++++++-+;;;;;;;;;;",
"==========++++++>+%%%%%%%%%%%%%%%%%%%%%%%%%%%%%%%%%+++++++-+;;;;;;;;;;",
"==========++++++>+%%%%%%%%%%%%%%%%%%%%%%%%%%%%%%%%%+++++++-+;;;;;;;;;;",
"==========++++++>+%%%%%%%%%%%%%%%%%%%%%%%%%%%%%%%%%+++++++-+;;;;;;;;;;",
"==========+++++++++%%%%%%%%%%%%%%%%%%%%%%%%%%%%%%%++++++++-+;;;;;;;;;;",
"==========+++++++++%%%%%%%%%%%%%%%%%%%%%%%%%%%%%%+++++++++++;;;;;;;;;;",
"           ++++++++%%%%%%%%%%%%%%%%%%%%%%%%%%%%%%++++++++++           ",
"           +++++++++%%%%%%%%%%%%%%%%%%%%%%%%%%%%+++++++++++           ",
"            +++++++++%%%%%%%%%%%%%%%%%%%%%%%%%%%++++++++++            ",
"             ++++++++%%%%%%%%%%%%%%%%%%%%%%%%%%%+++++++++             ",
"              ++++++&+%%%%%%%%%%%%%%%%%%%%%%%%+,++++++++              ",
"                 ++++++%%%%%%%%%%%%%%%%%%%%%%+->+++++                 ",
"                 +++++++%%%%%%%%%%%%%%%%%%%%%+,++++++                 ",
"                        %%%%%%%%%%%%%%%%%%%%%                         ",
"                         %%%%%%%%%%%%%%%%%%%%                         ",
"                             %%%%%%%%%%%%                             ",
"                                                                      ",
"                                                                      ",
"                                                                      ",
"                                                                      ",
"                                                                      ",
"                                                                      ",
"                                                                      ",
"                                                                      ",
"                                                                      ",
"                                                                      ",
"                                                                      ",
"                                                                      ",
"                                                                      ",
"                                                                      ",
"                                                                      ",
"                                                                      ",
"                                                                      ",
"                                                                      ",
"                                                                      "};
