/* XPM */
static char * bullet_xpm[] = {
"7 15 7 1",
" 	c None",
".	c #00DDFF",
"+	c #E59451",
"@	c #D37629",
"#	c #D8A274",
"$	c #F46F00",
"%	c #DDBA9D",
"   .   ",
"  .+.  ",
" .@+#. ",
"..@+#..",
".$@+#%.",
".$@+#%.",
".$@+#%.",
".$@+#%.",
".$@+#%.",
".$@+#%.",
".$@+#%.",
".$@+#%.",
".$@+#%.",
".$@+#%.",
"......."};
