/* XPM */
const char * shooter_xpm[] = {
"50 50 6 1",
" 	c None",
".	c #FFE97F",
"+	c #267F00",
"@	c #000000",
"#	c #FF0000",
"$	c #0094FF",
"                                                  ",
"                                                  ",
"                                                  ",
"                                                  ",
"                                                  ",
"                                                  ",
"                                                  ",
"                                                  ",
"                                                  ",
"                                                  ",
"                                                  ",
"                                                  ",
"                                                  ",
"                     .......                      ",
"                   ...........                    ",
"            +++++...............++++++            ",
"          ++++++.................+++++++          ",
"         ++++++@@@@@@@@@@@@@@@@@@@+++++++         ",
"        +++++++@@@@@@@@@@@@@@@@@@@++++++++        ",
"        ++++++@@@@@@@@@@@@@@@@@@@@@+++++++        ",
"#######+++++++@@@@@@@@@@@@@@@@@@@@@++++++++$$$$$$$",
"#######++++++@@@@@@@@@@@@@@@@@@@@@@@+++++++$$$$$$$",
"#######++++++@@@@@@@@@@@@@@@@@@@@@@@+++++++$$$$$$$",
"#######++++++@@@@@@@@@@@@@@@@@@@@@@@+++++++$$$$$$$",
"#######++++++@@@@@@@@@@@@@@@@@@@@@@@+++++++$$$$$$$",
"#######++++++@@@@@@@@@@@@@@@@@@@@@@@+++++++$$$$$$$",
"#######++++++@@@@@@@@@@@@@@@@@@@@@@@+++++++$$$$$$$",
"#######++++++@@@@@@@@@@@@@@@@@@@@@@@+++++++$$$$$$$",
"#######+++++++@@@@@@@@@@@@@@@@@@@@@++++++++$$$$$$$",
"        ++++++@@@@@@@@@@@@@@@@@@@@@+++++++        ",
"        +++++++@@@@@@@@@@@@@@@@@@@++++++++        ",
"         ++++++@@@@@@@@@@@@@@@@@@@+++++++         ",
"          ++++++@@@@@@@@@@@@@@@@@+++++++          ",
"            +++++@@@@@@@@@@@@@@@++++++            ",
"                   @@@@@@@@@@@                    ",
"                     @@@@@@@                      ",
"                                                  ",
"                                                  ",
"                                                  ",
"                                                  ",
"                                                  ",
"                                                  ",
"                                                  ",
"                                                  ",
"                                                  ",
"                                                  ",
"                                                  ",
"                                                  ",
"                                                  ",
"                                                  "};
